<svg width="106" height="106" viewBox="0 0 106 106" fill="none" xmlns="http://www.w3.org/2000/svg">
<path d="M60.1902 9.25927C59.9535 9.03009 59.6355 8.9043 59.3061 8.90958C58.9767 8.91486 58.6629 9.05078 58.4337 9.28742L52.2096 15.7155C51.9852 15.9472 51.8597 16.2571 51.8597 16.5797C51.8597 16.9022 51.9852 17.2121 52.2096 17.4438L58.4337 23.8719C58.5472 23.9891 58.6827 24.0828 58.8324 24.1477C58.9821 24.2125 59.1431 24.2472 59.3062 24.2499C59.4693 24.2525 59.6313 24.223 59.783 24.163C59.9347 24.103 60.0731 24.0137 60.1903 23.9002C60.3075 23.7867 60.4012 23.6513 60.466 23.5016C60.5309 23.3519 60.5656 23.1909 60.5682 23.0278C60.5708 22.8647 60.5413 22.7026 60.4813 22.5509C60.4213 22.3992 60.332 22.2608 60.2186 22.1437L54.831 16.5797L60.2186 11.0157C60.4477 10.779 60.5735 10.461 60.5681 10.1316C60.5628 9.80222 60.4269 9.48843 60.1902 9.25927Z" fill="url(#paint0_linear_1_28)"/>
<path d="M69.4615 23.9001C69.6981 24.1293 70.0161 24.2551 70.3455 24.2498C70.6749 24.2445 70.9887 24.1086 71.2179 23.8719L77.4421 17.4438C77.6665 17.2121 77.792 16.9022 77.792 16.5797C77.792 16.2571 77.6665 15.9472 77.4421 15.7155L71.2187 9.28742C70.9896 9.05074 70.6757 8.91479 70.3463 8.90949C70.0169 8.90419 69.6989 9.02997 69.4622 9.25916C69.2255 9.48834 69.0896 9.80217 69.0843 10.1316C69.079 10.461 69.2047 10.779 69.4339 11.0157L74.8211 16.5797L69.4335 22.1436C69.2043 22.3803 69.0785 22.6983 69.0837 23.0277C69.089 23.3571 69.2248 23.6709 69.4615 23.9001Z" fill="url(#paint1_linear_1_28)"/>
<path d="M67.4177 6.32439C67.0983 6.24368 66.7599 6.29315 66.4769 6.46193C66.194 6.6307 65.9897 6.90495 65.909 7.22435L61.3336 25.3263C61.2924 25.4849 61.283 25.65 61.3059 25.8123C61.3288 25.9745 61.3835 26.1306 61.467 26.2715C61.5504 26.4125 61.661 26.5356 61.7922 26.6337C61.9234 26.7318 62.0727 26.8029 62.2315 26.8431C62.3904 26.8832 62.5556 26.8915 62.7176 26.8675C62.8797 26.8436 63.0354 26.7878 63.1758 26.7034C63.3163 26.619 63.4386 26.5076 63.5358 26.3758C63.633 26.2439 63.7032 26.0941 63.7422 25.935L68.3176 7.83302C68.3983 7.51362 68.3488 7.17524 68.1801 6.89232C68.0113 6.6094 67.7371 6.40511 67.4177 6.32439Z" fill="url(#paint2_linear_1_28)"/>
<path d="M59.1668 40.9922H49.0163C47.9456 40.9922 46.9187 41.4175 46.1616 42.1746C45.4045 42.9317 44.9792 43.9586 44.9792 45.0293C44.9792 46.1 45.4045 47.1269 46.1616 47.884C46.9187 48.6411 47.9456 49.0664 49.0163 49.0664H59.1668C60.2375 49.0664 61.2644 48.6411 62.0215 47.884C62.7786 47.1269 63.2039 46.1 63.2039 45.0293C63.2039 43.9586 62.7786 42.9317 62.0215 42.1746C61.2644 41.4175 60.2375 40.9922 59.1668 40.9922ZM52.793 46.582H49.0163C48.6045 46.582 48.2095 46.4184 47.9184 46.1272C47.6272 45.8361 47.4636 45.4411 47.4636 45.0293C47.4636 44.6175 47.6272 44.2225 47.9184 43.9313C48.2095 43.6402 48.6045 43.4766 49.0163 43.4766H52.793V46.582ZM59.1668 46.582H55.2773V43.4766H59.1668C59.5786 43.4766 59.9736 43.6402 60.2648 43.9313C60.556 44.2225 60.7196 44.6175 60.7196 45.0293C60.7196 45.4411 60.556 45.8361 60.2648 46.1272C59.9736 46.4184 59.5786 46.582 59.1668 46.582Z" fill="url(#paint3_linear_1_28)"/>
<path d="M88.9557 61.6189C89.9338 61.619 90.8898 61.329 91.7031 60.7856C92.5163 60.2423 93.1501 59.47 93.5244 58.5665C93.8987 57.6629 93.9967 56.6686 93.8059 55.7094C93.6151 54.7502 93.1442 53.869 92.4526 53.1775C91.7611 52.4859 90.88 52.0149 89.9207 51.8241C88.9615 51.6332 87.9672 51.7312 87.0636 52.1054C86.1601 52.4797 85.3878 53.1135 84.8444 53.9267C84.301 54.7399 84.011 55.696 84.011 56.674C84.0125 57.985 84.5339 59.2418 85.4609 60.1689C86.3879 61.0959 87.6447 61.6174 88.9557 61.6189ZM88.9557 54.2134C89.4424 54.2134 89.9181 54.3576 90.3228 54.628C90.7275 54.8983 91.0429 55.2826 91.2292 55.7322C91.4154 56.1818 91.4642 56.6766 91.3693 57.1539C91.2743 57.6312 91.04 58.0696 90.6959 58.4138C90.3518 58.7579 89.9134 58.9923 89.4361 59.0872C88.9587 59.1822 88.464 59.1335 88.0144 58.9473C87.5648 58.761 87.1805 58.4457 86.9101 58.041C86.6397 57.6364 86.4954 57.1606 86.4954 56.674C86.4962 56.0217 86.7557 55.3963 87.2169 54.9351C87.6781 54.4738 88.3034 54.2143 88.9557 54.2134Z" fill="url(#paint4_linear_1_28)"/>
<path d="M68.5895 51.729C67.6114 51.729 66.6554 52.0191 65.8422 52.5624C65.029 53.1058 64.3952 53.8781 64.0209 54.7816C63.6467 55.6852 63.5487 56.6795 63.7395 57.6387C63.9303 58.5979 64.4013 59.479 65.0929 60.1706C65.7844 60.8621 66.6655 61.3331 67.6247 61.5239C68.584 61.7147 69.5782 61.6168 70.4818 61.2425C71.3854 60.8682 72.1577 60.2344 72.701 59.4212C73.2444 58.6081 73.5344 57.652 73.5344 56.674C73.5329 55.363 73.0115 54.106 72.0844 53.179C71.1574 52.252 69.9005 51.7305 68.5895 51.729ZM68.5895 59.1345C68.1028 59.1345 67.6271 58.9902 67.2224 58.7199C66.8178 58.4495 66.5024 58.0652 66.3162 57.6156C66.13 57.166 66.0812 56.6712 66.1762 56.1939C66.2711 55.7166 66.5055 55.2782 66.8496 54.9341C67.1937 54.59 67.6321 54.3556 68.1094 54.2607C68.5867 54.1657 69.0815 54.2145 69.5311 54.4007C69.9807 54.5869 70.365 54.9023 70.6353 55.307C70.9057 55.7116 71.05 56.1873 71.05 56.674C71.0492 57.3263 70.7897 57.9517 70.3284 58.413C69.8672 58.8742 69.2418 59.1337 68.5895 59.1345Z" fill="url(#paint5_linear_1_28)"/>
<path d="M83.7181 66.8568C83.7181 65.8788 83.428 64.9227 82.8847 64.1095C82.3413 63.2964 81.569 62.6625 80.6655 62.2883C79.7619 61.914 78.7676 61.8161 77.8084 62.0069C76.8492 62.1977 75.9681 62.6686 75.2765 63.3602C74.5849 64.0518 74.114 64.9329 73.9232 65.8921C73.7324 66.8513 73.8303 67.8456 74.2046 68.7492C74.5789 69.6527 75.2127 70.425 76.0258 70.9684C76.839 71.5117 77.7951 71.8018 78.7731 71.8018C80.0841 71.8003 81.341 71.2788 82.2681 70.3518C83.1951 69.4247 83.7166 68.1678 83.7181 66.8568ZM76.3125 66.8568C76.3125 66.3702 76.4569 65.8944 76.7272 65.4898C76.9976 65.0852 77.3819 64.7698 77.8315 64.5835C78.2811 64.3973 78.7758 64.3486 79.2531 64.4435C79.7304 64.5385 80.1689 64.7728 80.513 65.1169C80.8571 65.461 81.0915 65.8995 81.1864 66.3768C81.2813 66.8541 81.2326 67.3488 81.0464 67.7984C80.8601 68.248 80.5448 68.6323 80.1401 68.9027C79.7355 69.1731 79.2598 69.3174 78.7731 69.3174C78.1206 69.3168 77.495 69.0574 77.0336 68.5961C76.5722 68.1348 76.3125 67.5093 76.3117 66.8568H76.3125Z" fill="url(#paint6_linear_1_28)"/>
<path d="M78.7731 51.4363C79.7511 51.4361 80.7071 51.146 81.5201 50.6025C82.3332 50.0591 82.9669 49.2867 83.3411 48.3831C83.7152 47.4795 83.813 46.4853 83.6221 45.5261C83.4312 44.567 82.9602 43.6859 82.2686 42.9945C81.577 42.303 80.6959 41.8321 79.7367 41.6414C78.7775 41.4506 77.7833 41.5486 76.8797 41.9229C75.9762 42.2972 75.204 42.931 74.6607 43.7442C74.1173 44.5573 73.8273 45.5134 73.8273 46.4913C73.8288 47.8025 74.3504 49.0595 75.2776 49.9866C76.2048 50.9137 77.4619 51.435 78.7731 51.4363ZM78.7731 44.0308C79.2597 44.0309 79.7354 44.1754 80.1399 44.4459C80.5444 44.7163 80.8597 45.1007 81.0458 45.5503C81.2319 45.9999 81.2805 46.4946 81.1855 46.9719C81.0904 47.4491 80.856 47.8875 80.5119 48.2315C80.1677 48.5756 79.7293 48.8098 79.252 48.9047C78.7747 48.9996 78.28 48.9508 77.8305 48.7645C77.3809 48.5783 76.9967 48.2629 76.7263 47.8583C76.456 47.4537 76.3117 46.978 76.3117 46.4913C76.3125 45.8389 76.5722 45.2134 77.0336 44.7521C77.495 44.2908 78.1206 44.0314 78.7731 44.0308Z" fill="url(#paint7_linear_1_28)"/>
<path d="M76.5413 56.674C76.5413 57.1154 76.6721 57.5469 76.9173 57.9139C77.1626 58.281 77.5111 58.5671 77.9189 58.736C78.3267 58.905 78.7754 58.9492 79.2084 58.8631C79.6413 58.777 80.039 58.5645 80.3512 58.2524C80.6633 57.9403 80.8759 57.5426 80.962 57.1097C81.0481 56.6767 81.004 56.228 80.835 55.8202C80.6661 55.4123 80.3801 55.0638 80.0131 54.8185C79.646 54.5733 79.2145 54.4424 78.7731 54.4424C78.1814 54.443 77.6142 54.6784 77.1958 55.0967C76.7774 55.5151 76.542 56.0823 76.5413 56.674ZM79.0257 56.674C79.0257 56.7239 79.0109 56.7728 78.9831 56.8143C78.9554 56.8558 78.9159 56.8882 78.8698 56.9073C78.8236 56.9264 78.7728 56.9314 78.7238 56.9217C78.6748 56.912 78.6298 56.8879 78.5945 56.8526C78.5592 56.8172 78.5351 56.7722 78.5254 56.7232C78.5156 56.6743 78.5206 56.6235 78.5398 56.5773C78.5589 56.5312 78.5913 56.4917 78.6328 56.464C78.6743 56.4362 78.7232 56.4214 78.7731 56.4214C78.8401 56.4215 78.9042 56.4481 78.9516 56.4955C78.9989 56.5428 79.0256 56.607 79.0257 56.674Z" fill="url(#paint8_linear_1_28)"/>
<path d="M34.5121 53H31.0547V49.5366C31.044 49.1955 30.9038 48.8714 30.6625 48.6302C30.4212 48.389 30.097 48.2488 29.756 48.2383H24.9932C24.3073 48.2383 23.8086 48.8507 23.8086 49.5366V53H20.2371C19.9079 53.0138 19.5976 53.1578 19.3745 53.4002C19.1513 53.6426 19.0335 53.9637 19.0469 54.2929V59.0546C19.0419 59.2123 19.0693 59.3694 19.1274 59.5161C19.1855 59.6628 19.2729 59.796 19.3844 59.9077C19.4959 60.0193 19.6291 60.1069 19.7757 60.1651C19.9224 60.2233 20.0794 60.2509 20.2371 60.2461H23.8086V63.8114C23.8031 63.969 23.8298 64.1261 23.8873 64.273C23.9447 64.4199 24.0316 64.5535 24.1426 64.6656C24.2537 64.7777 24.3864 64.8658 24.5328 64.9247C24.6791 64.9835 24.836 65.0118 24.9936 65.0078H29.7564C30.0869 65.02 30.4088 64.9011 30.6519 64.677C30.8951 64.4529 31.0399 64.1417 31.0547 63.8114V60.2461H34.5121C35.1982 60.2461 35.8164 59.7416 35.8164 59.0555V54.2937C35.8045 53.9526 35.663 53.6288 35.4206 53.3884C35.1783 53.148 34.8533 53.0091 34.5121 53ZM33.332 57.7617H29.7564C29.5936 57.7688 29.4337 57.8078 29.286 57.8767C29.1382 57.9455 29.0055 58.0428 28.8954 58.1629C28.7852 58.283 28.6998 58.4237 28.6441 58.5768C28.5883 58.73 28.5632 58.8926 28.5703 59.0555V62.5234H26.293V59.0555C26.2821 58.7148 26.1415 58.3912 25.9 58.1508C25.6585 57.9103 25.3343 57.7711 24.9936 57.7617H21.5312V55.4844H24.9932C25.6793 55.4844 26.293 54.9788 26.293 54.2929V50.7227H28.5703V54.2929C28.565 54.4503 28.5919 54.6072 28.6495 54.7538C28.7071 54.9004 28.7942 55.0336 28.9053 55.1452C29.0164 55.2569 29.1492 55.3446 29.2955 55.4029C29.4418 55.4612 29.5985 55.489 29.756 55.4844H33.332V57.7617Z" fill="url(#paint9_linear_1_28)"/>
<path d="M27.3745 41.975C24.4673 41.975 21.6253 42.8371 19.2081 44.4522C16.7908 46.0674 14.9067 48.3631 13.7942 51.049C12.6816 53.735 12.3905 56.6905 12.9577 59.5419C13.5249 62.3932 14.9249 65.0124 16.9806 67.0681C19.0363 69.1238 21.6555 70.5238 24.5068 71.091C27.3582 71.6581 30.3137 71.367 32.9996 70.2545C35.6856 69.1419 37.9813 67.2579 39.5965 64.8406C41.2116 62.4234 42.0737 59.5814 42.0737 56.6742C42.0693 52.7771 40.5193 49.0408 37.7636 46.2851C35.0079 43.5294 31.2716 41.9793 27.3745 41.975ZM27.3745 68.889C24.9586 68.889 22.597 68.1726 20.5883 66.8305C18.5796 65.4883 17.014 63.5806 16.0895 61.3486C15.1649 59.1166 14.923 56.6606 15.3944 54.2912C15.8657 51.9217 17.029 49.7453 18.7373 48.037C20.4456 46.3287 22.6221 45.1654 24.9915 44.694C27.3609 44.2227 29.8169 44.4646 32.0489 45.3891C34.2809 46.3137 36.1886 47.8793 37.5308 49.888C38.873 51.8967 39.5893 54.2583 39.5893 56.6742C39.5857 59.9126 38.2976 63.0173 36.0076 65.3072C33.7177 67.5971 30.6129 68.8852 27.3745 68.8888V68.889Z" fill="url(#paint10_linear_1_28)"/>
<path d="M103.058 88.1953L99.7371 65.7784C101.252 62.2966 101.877 58.4928 101.556 54.7094C101.235 50.926 99.9789 47.2818 97.8996 44.1047C95.8204 40.9277 92.9837 38.3175 89.6449 36.5093C86.3061 34.7011 82.5701 33.7515 78.7731 33.7461H72.5516C72.6999 33.1424 72.9669 32.5743 73.3371 32.0749C73.9756 31.258 74.9198 30.8477 76.2239 30.8477H79.882C80.5967 30.8486 81.3045 30.7079 81.9645 30.4336C82.6245 30.1593 83.2236 29.757 83.7271 29.2497C84.2306 28.7425 84.6286 28.1405 84.8981 27.4785C85.1675 26.8165 85.3031 26.1077 85.2969 25.393V6.51693C85.3035 5.80082 85.1685 5.09047 84.8996 4.42674C84.6306 3.76302 84.2331 3.15904 83.7298 2.64955C83.2266 2.14007 82.6275 1.73514 81.9671 1.45808C81.3068 1.18101 80.5981 1.03728 79.882 1.03516H49.7703C49.0515 1.03622 48.3399 1.17885 47.6762 1.45492C47.0125 1.731 46.4096 2.13509 45.9021 2.64415C45.3946 3.1532 44.9923 3.75723 44.7182 4.42176C44.4441 5.08629 44.3036 5.7983 44.3047 6.51714V25.4027C44.304 26.1192 44.4449 26.8287 44.7192 27.4905C44.9935 28.1523 45.3958 28.7535 45.9031 29.2594C46.4103 29.7653 47.0125 30.1661 47.6751 30.4386C48.3376 30.7112 49.0475 30.8502 49.7639 30.8477H63.4983C63.4883 31.8315 63.586 32.8134 63.7898 33.7759L27.2184 33.7809C23.4058 33.7912 19.6561 34.7526 16.3089 36.578C12.9617 38.4033 10.1229 41.035 8.04955 44.2346C5.97625 47.4342 4.73402 51.1005 4.43542 54.9013C4.13682 58.7022 4.79128 62.5175 6.3395 66.0016L2.97545 88.7158C2.49451 91.9719 3.17375 95.2935 4.89435 98.0995C6.61495 100.905 9.26735 103.017 12.3875 104.065C15.5077 105.113 18.8971 105.03 21.9626 103.832C25.0281 102.633 27.5746 100.395 29.1566 97.5088L41.8652 74.2973C43.4126 72.9985 44.7837 71.5032 45.9438 69.8492C46.716 68.7449 47.7417 67.8418 48.9348 67.2156C50.128 66.5893 51.4539 66.2582 52.8015 66.25H53.2594C54.6025 66.2573 55.9243 66.5856 57.1147 67.2076C58.3051 67.8295 59.3296 68.7271 60.1026 69.8254C61.2651 71.4752 62.6408 72.9639 64.194 74.2526L76.7465 97.6647C77.9634 99.8722 79.7501 101.713 81.9203 102.995C84.0905 104.277 86.5649 104.954 89.0855 104.954C90.4693 104.955 91.8454 104.749 93.1684 104.344C99.8477 102.294 103.917 95.6691 103.063 88.2357C103.062 88.2222 103.06 88.2096 103.058 88.1953ZM49.768 28.3633H49.7649C49.3739 28.366 48.9861 28.291 48.6242 28.1428C48.2623 27.9945 47.9335 27.7759 47.6567 27.4996C47.3799 27.2234 47.1606 26.8949 47.0117 26.5333C46.8628 26.1717 46.7871 25.7841 46.7891 25.393V6.51734C46.7876 6.12464 46.8635 5.73549 47.0126 5.37219C47.1617 5.00888 47.381 4.67854 47.6579 4.40009C47.9348 4.12163 48.2639 3.90053 48.6264 3.74943C48.9889 3.59833 49.3776 3.52021 49.7703 3.51953H79.882C80.272 3.5213 80.6578 3.60055 81.0169 3.75265C81.376 3.90476 81.7014 4.1267 81.974 4.40559C82.2467 4.68447 82.4612 5.01475 82.6051 5.37723C82.7491 5.73971 82.8195 6.12718 82.8125 6.51714V25.3926C82.8191 25.7811 82.7481 26.1671 82.6037 26.5279C82.4593 26.8887 82.2443 27.217 81.9714 27.4937C81.6985 27.7703 81.3731 27.9897 81.0143 28.139C80.6555 28.2884 80.2706 28.3646 79.882 28.3633H76.2239C74.1342 28.3633 72.5044 29.1065 71.3794 30.5454C69.6416 32.7687 69.6337 36.218 69.8832 38.531C69.5068 38.2906 69.1492 38.0219 68.8137 37.7271C66.8139 35.9611 65.8651 33.5037 65.9937 30.4201C66.018 29.9111 65.8423 29.4128 65.5041 29.0316C65.166 28.6504 64.6921 28.4165 64.1838 28.38C64.1507 28.3782 64.1176 28.3633 64.0737 28.3633H49.768ZM26.9776 96.3157C25.6765 98.692 23.5811 100.535 21.0581 101.522C18.5352 102.509 15.7454 102.577 13.1772 101.715C10.609 100.852 8.42597 99.114 7.01025 96.8041C5.59453 94.4943 5.03632 91.7601 5.43333 89.0802L8.32452 69.5625C10.4252 72.6343 13.2408 75.1498 16.5291 76.8923C19.8174 78.6349 23.4798 79.5524 27.2012 79.5658C30.76 79.5642 34.2707 78.7433 37.4613 77.167L26.9776 96.3157ZM62.1313 68.3824C61.1283 66.9609 59.7996 65.8001 58.2563 64.9969C56.7131 64.1937 55 63.7716 53.2602 63.7656H52.7994C51.054 63.774 49.3362 64.2008 47.7899 65.0103C46.2436 65.8198 44.914 66.9883 43.9126 68.4178C41.8905 71.2743 39.1676 73.5625 36.0057 75.0625C32.8437 76.5625 29.349 77.2238 25.8576 76.9829C22.3662 76.742 18.9955 75.607 16.0695 73.687C13.1435 71.7669 10.7607 69.1264 9.1501 66.0193C7.53951 62.9122 6.75532 59.443 6.87293 55.9453C6.99055 52.4476 8.006 49.0389 9.82167 46.047C11.6373 43.0552 14.1922 40.5807 17.2405 38.8615C20.2889 37.1423 23.7282 36.2363 27.2279 36.2305H64.6236C65.2385 37.5066 66.1046 38.6455 67.17 39.579C68.3296 40.6119 69.6933 41.3896 71.1728 41.8617C71.3812 41.9193 71.6011 41.9213 71.8106 41.8674C72.02 41.8135 72.2116 41.7056 72.3664 41.5545C72.5211 41.4035 72.6335 41.2144 72.6924 41.0063C72.7513 40.7983 72.7546 40.5784 72.7019 40.3686C72.3886 39.012 72.2357 37.6232 72.2464 36.2309H78.7741C84.1826 36.231 89.3695 38.3797 93.1937 42.2042C97.0179 46.0286 99.1663 51.2156 99.1661 56.6241C99.1659 62.0325 97.0173 67.2194 93.1928 71.0436C89.3683 74.8679 84.1814 77.0162 78.7729 77.016H78.7578C75.4983 77.0099 72.2877 76.2227 69.3949 74.7206C66.5021 73.2185 64.0114 71.0451 62.1313 68.3824ZM92.4394 101.971C89.9006 102.742 87.1737 102.619 84.7148 101.621C82.256 100.623 80.2143 98.8114 78.9313 96.4886L68.5273 77.0924C71.7014 78.6855 75.2033 79.5158 78.7547 79.5174C78.7605 79.5171 78.7664 79.5171 78.7723 79.5174C81.7883 79.5221 84.775 78.9257 87.5578 77.7629C90.3406 76.6002 92.8638 74.8944 94.9799 72.7454C96.0093 71.7093 96.9388 70.5786 97.7562 69.3683L100.596 88.5394C101.303 94.7582 97.9502 100.279 92.4394 101.971Z" fill="url(#paint11_linear_1_28)"/>
<path d="M26.0859 40.9922H27.1211C27.4505 40.9922 27.7665 40.8613 27.9995 40.6284C28.2324 40.3954 28.3633 40.0794 28.3633 39.75C28.3633 39.4206 28.2324 39.1046 27.9995 38.8716C27.7665 38.6387 27.4505 38.5078 27.1211 38.5078H26.0859C25.7565 38.5078 25.4405 38.6387 25.2076 38.8716C24.9746 39.1046 24.8438 39.4206 24.8438 39.75C24.8438 40.0794 24.9746 40.3954 25.2076 40.6284C25.4405 40.8613 25.7565 40.9922 26.0859 40.9922Z" fill="url(#paint12_linear_1_28)"/>
<path d="M45.9609 39.75C45.9609 39.4206 45.8301 39.1046 45.5971 38.8716C45.3642 38.6387 45.0482 38.5078 44.7188 38.5078H31.0547C30.7252 38.5078 30.4093 38.6387 30.1763 38.8716C29.9434 39.1046 29.8125 39.4206 29.8125 39.75C29.8125 40.0794 29.9434 40.3954 30.1763 40.6284C30.4093 40.8613 30.7252 40.9922 31.0547 40.9922H44.7188C45.0482 40.9922 45.3642 40.8613 45.5971 40.6284C45.8301 40.3954 45.9609 40.0794 45.9609 39.75Z" fill="url(#paint13_linear_1_28)"/>
<defs>
<linearGradient id="paint0_linear_1_28" x1="56.2142" y1="95.1836" x2="56.2142" y2="15.477" gradientUnits="userSpaceOnUse">
<stop offset="0.322" stop-color="#A163F5"/>
<stop offset="0.466" stop-color="#B074EE"/>
<stop offset="0.752" stop-color="#D8A1DD"/>
<stop offset="0.898" stop-color="#EFBAD3"/>
</linearGradient>
<linearGradient id="paint1_linear_1_28" x1="3158.09" y1="7061.83" x2="3158.09" y2="1155.73" gradientUnits="userSpaceOnUse">
<stop offset="0.322" stop-color="#A163F5"/>
<stop offset="0.466" stop-color="#B074EE"/>
<stop offset="0.752" stop-color="#D8A1DD"/>
<stop offset="0.898" stop-color="#EFBAD3"/>
</linearGradient>
<linearGradient id="paint2_linear_1_28" x1="2272.48" y1="9474.66" x2="2272.48" y2="1545.86" gradientUnits="userSpaceOnUse">
<stop offset="0.322" stop-color="#A163F5"/>
<stop offset="0.466" stop-color="#B074EE"/>
<stop offset="0.752" stop-color="#D8A1DD"/>
<stop offset="0.898" stop-color="#EFBAD3"/>
</linearGradient>
<linearGradient id="paint3_linear_1_28" x1="4806.6" y1="3753.15" x2="4806.6" y2="644.596" gradientUnits="userSpaceOnUse">
<stop offset="0.322" stop-color="#A163F5"/>
<stop offset="0.466" stop-color="#B074EE"/>
<stop offset="0.752" stop-color="#D8A1DD"/>
<stop offset="0.898" stop-color="#EFBAD3"/>
</linearGradient>
<linearGradient id="paint4_linear_1_28" x1="4333.44" y1="4598.65" x2="4333.44" y2="791.067" gradientUnits="userSpaceOnUse">
<stop offset="0.322" stop-color="#A163F5"/>
<stop offset="0.466" stop-color="#B074EE"/>
<stop offset="0.752" stop-color="#D8A1DD"/>
<stop offset="0.898" stop-color="#EFBAD3"/>
</linearGradient>
<linearGradient id="paint5_linear_1_28" x1="3340.2" y1="4598.65" x2="3340.2" y2="791.067" gradientUnits="userSpaceOnUse">
<stop offset="0.322" stop-color="#A163F5"/>
<stop offset="0.466" stop-color="#B074EE"/>
<stop offset="0.752" stop-color="#D8A1DD"/>
<stop offset="0.898" stop-color="#EFBAD3"/>
</linearGradient>
<linearGradient id="paint6_linear_1_28" x1="3836.82" y1="4608.84" x2="3836.82" y2="801.25" gradientUnits="userSpaceOnUse">
<stop offset="0.322" stop-color="#A163F5"/>
<stop offset="0.466" stop-color="#B074EE"/>
<stop offset="0.752" stop-color="#D8A1DD"/>
<stop offset="0.898" stop-color="#EFBAD3"/>
</linearGradient>
<linearGradient id="paint7_linear_1_28" x1="3836.82" y1="4588.47" x2="3836.82" y2="780.885" gradientUnits="userSpaceOnUse">
<stop offset="0.322" stop-color="#A163F5"/>
<stop offset="0.466" stop-color="#B074EE"/>
<stop offset="0.752" stop-color="#D8A1DD"/>
<stop offset="0.898" stop-color="#EFBAD3"/>
</linearGradient>
<linearGradient id="paint8_linear_1_28" x1="1774.89" y1="2106.6" x2="1774.89" y2="388.127" gradientUnits="userSpaceOnUse">
<stop offset="0.322" stop-color="#A163F5"/>
<stop offset="0.466" stop-color="#B074EE"/>
<stop offset="0.752" stop-color="#D8A1DD"/>
<stop offset="0.898" stop-color="#EFBAD3"/>
</linearGradient>
<linearGradient id="paint9_linear_1_28" x1="2241.15" y1="7758.51" x2="2241.15" y2="1301.94" gradientUnits="userSpaceOnUse">
<stop offset="0.322" stop-color="#A163F5"/>
<stop offset="0.466" stop-color="#B074EE"/>
<stop offset="0.752" stop-color="#D8A1DD"/>
<stop offset="0.898" stop-color="#EFBAD3"/>
</linearGradient>
<linearGradient id="paint10_linear_1_28" x1="3899.86" y1="13558.1" x2="3899.86" y2="2239.71" gradientUnits="userSpaceOnUse">
<stop offset="0.322" stop-color="#A163F5"/>
<stop offset="0.466" stop-color="#B074EE"/>
<stop offset="0.752" stop-color="#D8A1DD"/>
<stop offset="0.898" stop-color="#EFBAD3"/>
</linearGradient>
<linearGradient id="paint11_linear_1_28" x1="25692.6" y1="47778.5" x2="25692.6" y2="7769.73" gradientUnits="userSpaceOnUse">
<stop offset="0.322" stop-color="#A163F5"/>
<stop offset="0.466" stop-color="#B074EE"/>
<stop offset="0.752" stop-color="#D8A1DD"/>
<stop offset="0.898" stop-color="#EFBAD3"/>
</linearGradient>
<linearGradient id="paint12_linear_1_28" x1="477.104" y1="1180.71" x2="477.104" y2="224.232" gradientUnits="userSpaceOnUse">
<stop offset="0.322" stop-color="#A163F5"/>
<stop offset="0.466" stop-color="#B074EE"/>
<stop offset="0.752" stop-color="#D8A1DD"/>
<stop offset="0.898" stop-color="#EFBAD3"/>
</linearGradient>
<linearGradient id="paint13_linear_1_28" x1="2984.98" y1="1180.71" x2="2984.98" y2="224.232" gradientUnits="userSpaceOnUse">
<stop offset="0.322" stop-color="#A163F5"/>
<stop offset="0.466" stop-color="#B074EE"/>
<stop offset="0.752" stop-color="#D8A1DD"/>
<stop offset="0.898" stop-color="#EFBAD3"/>
</linearGradient>
</defs>
</svg>
