<svg width="21" height="20" viewBox="0 0 21 20" fill="none" xmlns="http://www.w3.org/2000/svg">
<path d="M10.4331 0C4.9221 0 0.433105 4.489 0.433105 10C0.433105 15.511 4.9221 20 10.4331 20C15.9441 20 20.4331 15.511 20.4331 10C20.4331 4.489 15.9441 0 10.4331 0ZM10.4331 2C14.8632 2 18.4331 5.56988 18.4331 10C18.4331 14.0145 15.4984 17.313 11.6519 17.8984V12.3848H13.98L14.3452 10.0195H11.6519V8.72656C11.6519 7.74356 11.9721 6.87109 12.8921 6.87109H14.3687V4.80664C14.1087 4.77164 13.5599 4.69531 12.5229 4.69531C10.3569 4.69531 9.0874 5.83931 9.0874 8.44531V10.0195H6.86084V12.3848H9.0874V17.8789C5.3034 17.2408 2.43311 13.9702 2.43311 10C2.43311 5.56988 6.00298 2 10.4331 2Z" fill="black"/>
</svg>
