<svg width="25" height="24" viewBox="0 0 25 24" fill="none" xmlns="http://www.w3.org/2000/svg">
<path d="M8.43311 3C5.67611 3 3.43311 5.243 3.43311 8V16C3.43311 18.757 5.67611 21 8.43311 21H16.4331C19.1901 21 21.4331 18.757 21.4331 16V8C21.4331 5.243 19.1901 3 16.4331 3H8.43311ZM8.43311 5H16.4331C18.0871 5 19.4331 6.346 19.4331 8V16C19.4331 17.654 18.0871 19 16.4331 19H8.43311C6.77911 19 5.43311 17.654 5.43311 16V8C5.43311 6.346 6.77911 5 8.43311 5ZM17.4331 6C17.1679 6 16.9135 6.10536 16.726 6.29289C16.5385 6.48043 16.4331 6.73478 16.4331 7C16.4331 7.26522 16.5385 7.51957 16.726 7.70711C16.9135 7.89464 17.1679 8 17.4331 8C17.6983 8 17.9527 7.89464 18.1402 7.70711C18.3277 7.51957 18.4331 7.26522 18.4331 7C18.4331 6.73478 18.3277 6.48043 18.1402 6.29289C17.9527 6.10536 17.6983 6 17.4331 6ZM12.4331 7C9.67611 7 7.43311 9.243 7.43311 12C7.43311 14.757 9.67611 17 12.4331 17C15.1901 17 17.4331 14.757 17.4331 12C17.4331 9.243 15.1901 7 12.4331 7ZM12.4331 9C14.0871 9 15.4331 10.346 15.4331 12C15.4331 13.654 14.0871 15 12.4331 15C10.7791 15 9.43311 13.654 9.43311 12C9.43311 10.346 10.7791 9 12.4331 9Z" fill="black"/>
</svg>
