<svg width="106" height="106" viewBox="0 0 106 106" fill="none" xmlns="http://www.w3.org/2000/svg">
<path d="M84.1716 64.0938C84.1717 63.1044 83.8784 62.1373 83.3287 61.3147C82.7791 60.4921 81.9979 59.8509 81.0839 59.4723C80.1699 59.0937 79.1641 58.9946 78.1938 59.1876C77.2234 59.3806 76.3321 59.857 75.6326 60.5566C74.933 61.2561 74.4566 62.1474 74.2636 63.1178C74.0706 64.0881 74.1697 65.0938 74.5483 66.0079C74.9269 66.9219 75.5681 67.7031 76.3907 68.2527C77.2133 68.8023 78.1804 69.0957 79.1698 69.0956C80.4959 69.0941 81.7672 68.5666 82.7049 67.6289C83.6426 66.6912 84.1701 65.4199 84.1716 64.0938ZM76.6521 64.0938C76.652 63.5958 76.7996 63.109 77.0763 62.6949C77.3529 62.2809 77.7461 61.9582 78.2061 61.7676C78.6662 61.577 79.1724 61.5271 79.6608 61.6242C80.1492 61.7213 80.5979 61.9611 80.95 62.3132C81.3021 62.6653 81.5419 63.1139 81.6391 63.6023C81.7362 64.0907 81.6864 64.5969 81.4958 65.057C81.3053 65.5171 80.9826 65.9103 80.5686 66.1869C80.1545 66.4636 79.6677 66.6113 79.1698 66.6113C78.5023 66.6106 77.8623 66.3451 77.3903 65.8731C76.9183 65.4012 76.6528 64.7612 76.6521 64.0938Z" fill="url(#paint0_linear_1_56)"/>
<path d="M103.809 85.7644L100.437 62.9984C101.974 59.4622 102.609 55.5996 102.285 51.7574C101.96 47.9152 100.687 44.2137 98.5783 40.9853C96.4699 37.7569 93.5928 35.1027 90.2052 33.261C86.8176 31.4192 83.0256 30.4477 79.1698 30.4336H67.0781V30.2059C67.0849 29.5279 66.9566 28.8553 66.7005 28.2275C66.4445 27.5997 66.066 27.0291 65.587 26.5492C65.1081 26.0693 64.5383 25.6896 63.911 25.4323C63.2837 25.1751 62.6114 25.0454 61.9334 25.0508H58.1758V23.2819C58.1735 22.4077 57.8907 21.5574 57.3689 20.856C56.8471 20.1546 56.114 19.6393 55.2774 19.3858V10.1129C55.2774 8.95978 55.7354 7.85394 56.5508 7.0386C57.3661 6.22325 58.4719 5.7652 59.625 5.7652C60.7781 5.7652 61.8839 6.22325 62.6993 7.0386C63.5146 7.85394 63.9727 8.95978 63.9727 10.1129V16.2727C63.9833 18.4944 64.8732 20.6216 66.4479 22.189C68.0226 23.7563 70.1539 24.6364 72.3757 24.6367H72.3932C72.7234 24.6374 73.0404 24.5073 73.2748 24.2749C73.5093 24.0424 73.6421 23.7265 73.6441 23.3964C73.6374 23.0637 73.5002 22.7471 73.2621 22.5147C73.0239 22.2823 72.704 22.1528 72.3713 22.1542C70.8085 22.1537 69.3095 21.535 68.2014 20.433C67.0933 19.331 66.4662 17.8354 66.457 16.2727V10.1129C66.457 8.30089 65.7372 6.56313 64.456 5.28188C63.1747 4.00062 61.437 3.28082 59.625 3.28082C57.813 3.28082 56.0753 4.00062 54.794 5.28188C53.5128 6.56313 52.793 8.30089 52.793 10.1129V19.4537C51.9944 19.7207 51.3022 20.2364 50.8179 20.9253C50.3336 21.6142 50.0826 22.44 50.1016 23.2819V25.0508H46.2833C43.4033 25.0508 40.9922 27.325 40.9922 30.2059V30.4336H26.83C19.3102 30.6406 12.23 34.162 7.89018 40.303C6.12267 42.7942 4.8661 45.6108 4.19301 48.5903C3.51993 51.5698 3.44365 54.653 3.96859 57.6621C4.2952 59.5736 4.85736 61.4373 5.64224 63.2106L2.22498 86.2861C1.72608 89.6522 2.45009 93.0857 4.26569 95.9638C6.08128 98.8419 8.86823 100.974 12.1211 101.973C13.4627 102.385 14.8583 102.595 16.2617 102.595C18.8172 102.594 21.3259 101.909 23.5264 100.61C25.727 99.3102 27.5387 97.4445 28.773 95.2068L41.6754 71.644C43.2483 70.3431 44.6418 68.8394 45.8193 67.1721C46.6078 66.0545 47.6535 65.1429 48.868 64.514C50.0826 63.8851 51.4306 63.5574 52.7984 63.5586H53.2636C54.6267 63.5565 55.9704 63.8812 57.1821 64.5056C58.3938 65.13 59.4381 66.0358 60.2275 67.1471C61.4119 68.823 62.8147 70.3334 64.3985 71.6384L77.1289 95.3741C78.3631 97.612 80.1749 99.4778 82.3754 100.777C84.576 102.077 87.0848 102.762 89.6404 102.762C91.0438 102.763 92.4394 102.553 93.781 102.141C100.554 100.062 104.68 93.3442 103.815 85.8051C103.813 85.7913 103.811 85.7778 103.809 85.7644ZM52.5859 23.2821C52.5859 22.8703 52.7495 22.4754 53.0407 22.1842C53.3319 21.893 53.7269 21.7294 54.1387 21.7294C54.5505 21.7294 54.9454 21.893 55.2366 22.1842C55.5278 22.4754 55.6914 22.8703 55.6914 23.2821V25.0508H52.5859V23.2821ZM43.4766 30.2059C43.4766 28.6958 44.7732 27.5352 46.2833 27.5352H61.9334C62.2853 27.5293 62.6347 27.5945 62.9607 27.7268C63.2868 27.8591 63.5829 28.0558 63.8312 28.3051C64.0795 28.5544 64.2751 28.8512 64.4061 29.1778C64.5371 29.5044 64.6009 29.854 64.5938 30.2059V30.4336H43.4766V30.2059ZM26.594 94.0152C25.2707 96.4319 23.1396 98.3063 20.5737 99.3102C18.0077 100.314 15.1705 100.383 12.5585 99.5062C9.94658 98.629 7.72636 96.8611 6.28651 94.5119C4.84665 92.1628 4.27891 89.382 4.68265 86.6564L7.62539 66.7908C9.75486 69.9214 12.6165 72.4847 15.9618 74.258C19.3071 76.0312 23.0347 76.9609 26.8209 76.9661C30.4486 76.9664 34.0269 76.1251 37.2743 74.5083L26.594 94.0152ZM62.2562 65.7554C61.2395 64.3144 59.8929 63.1375 58.3286 62.3232C56.7643 61.5088 55.0279 61.0806 53.2644 61.0742H52.7963C51.0308 61.0732 49.291 61.4965 47.7233 62.3085C46.1557 63.1204 44.8061 64.2973 43.7884 65.7399C41.7328 68.6449 38.9644 70.9721 35.7494 72.4978C32.5343 74.0235 28.9808 74.6963 25.4306 74.4515C21.8804 74.2067 18.4528 73.0526 15.4776 71.1001C12.5024 69.1476 10.0796 66.4624 8.44215 63.3028C6.80476 60.1432 6.00786 56.6155 6.12809 53.0588C6.24833 49.5022 7.28165 46.0363 9.12869 42.9945C10.9757 39.9527 13.5743 37.4373 16.6746 35.6902C19.7749 33.9431 23.2726 33.023 26.8313 33.0186H79.1688C84.6416 33.0675 89.8736 35.2758 93.7263 39.1631C97.579 43.0503 99.7405 48.3019 99.7405 53.7749C99.7405 59.2479 97.579 64.4995 93.7263 68.3867C89.8736 72.274 84.6416 74.4824 79.1688 74.5312H79.1532C75.8406 74.5246 72.5778 73.7243 69.638 72.1976C66.6982 70.6708 64.167 68.462 62.2562 65.756V65.7554ZM93.0517 99.7661C90.4695 100.551 87.6962 100.426 85.1955 99.4106C82.6948 98.3957 80.6185 96.5529 79.3137 94.1905L68.7323 74.4623C71.9646 76.0901 75.533 76.9385 79.152 76.9396C79.158 76.9396 79.1632 76.9353 79.17 76.9349C82.2301 76.9392 85.2603 76.3336 88.0836 75.1534C90.907 73.9733 93.4668 72.2422 95.6135 70.0614C96.6694 68.9986 97.6218 67.8378 98.4579 66.5945L101.349 86.1078C102.066 92.431 98.6564 98.0454 93.0517 99.7661Z" fill="url(#paint1_linear_1_56)"/>
<path d="M59.2617 37.8867H48.955C47.8569 37.8867 46.8037 38.323 46.0272 39.0995C45.2506 39.876 44.8144 40.9292 44.8144 42.0273C44.8144 43.1255 45.2506 44.1787 46.0272 44.9552C46.8037 45.7317 47.8569 46.168 48.955 46.168H59.2617C60.3598 46.168 61.413 45.7317 62.1895 44.9552C62.966 44.1787 63.4023 43.1255 63.4023 42.0273C63.4023 40.9292 62.966 39.876 62.1895 39.0995C61.413 38.323 60.3598 37.8867 59.2617 37.8867ZM52.793 43.6836H48.955C48.5158 43.6836 48.0945 43.5091 47.7839 43.1985C47.4733 42.8879 47.2988 42.4666 47.2988 42.0273C47.2988 41.5881 47.4733 41.1668 47.7839 40.8562C48.0945 40.5456 48.5158 40.3711 48.955 40.3711H52.793V43.6836ZM59.2617 43.6836H55.2773V40.3711H59.2617C59.7009 40.3711 60.1222 40.5456 60.4328 40.8562C60.7434 41.1668 60.9179 41.5881 60.9179 42.0273C60.9179 42.4666 60.7434 42.8879 60.4328 43.1985C60.1222 43.5091 59.7009 43.6836 59.2617 43.6836Z" fill="url(#paint2_linear_1_56)"/>
<path d="M89.5091 58.7555C90.4985 58.7555 91.4656 58.4622 92.2882 57.9126C93.1108 57.3629 93.752 56.5817 94.1306 55.6677C94.5092 54.7537 94.6083 53.7479 94.4153 52.7776C94.2223 51.8073 93.7459 50.9159 93.0463 50.2164C92.3468 49.5168 91.4555 49.0404 90.4852 48.8474C89.5148 48.6544 88.5091 48.7535 87.595 49.1321C86.681 49.5107 85.8998 50.1519 85.3502 50.9745C84.8006 51.7971 84.5072 52.7643 84.5073 53.7536C84.5088 55.0797 85.0363 56.3511 85.974 57.2888C86.9117 58.2265 88.183 58.7539 89.5091 58.7555ZM89.5091 51.2359C90.0071 51.2358 90.4939 51.3835 90.908 51.6601C91.322 51.9367 91.6447 52.3299 91.8353 52.79C92.0259 53.25 92.0758 53.7562 91.9787 54.2446C91.8816 54.733 91.6418 55.1817 91.2897 55.5338C90.9376 55.8859 90.489 56.1257 90.0006 56.2229C89.5122 56.3201 89.006 56.2702 88.5459 56.0797C88.0858 55.8891 87.6926 55.5664 87.416 55.1524C87.1393 54.7383 86.9916 54.2516 86.9916 53.7536C86.9926 53.0863 87.2581 52.4465 87.7301 51.9747C88.202 51.5029 88.8418 51.2375 89.5091 51.2367V51.2359Z" fill="url(#paint3_linear_1_56)"/>
<path d="M68.8302 48.7523C67.8409 48.7523 66.8738 49.0457 66.0512 49.5953C65.2286 50.145 64.5875 50.9262 64.2089 51.8402C63.8303 52.7542 63.7313 53.76 63.9243 54.7303C64.1173 55.7006 64.5937 56.5919 65.2932 57.2914C65.9928 57.991 66.8841 58.4674 67.8544 58.6604C68.8247 58.8534 69.8304 58.7543 70.7445 58.3757C71.6585 57.9971 72.4397 57.356 72.9893 56.5334C73.539 55.7108 73.8323 54.7437 73.8323 53.7544C73.8309 52.4282 73.3034 51.1567 72.3657 50.219C71.4279 49.2812 70.1564 48.7538 68.8302 48.7523ZM68.8302 56.2719C68.3323 56.2719 67.8455 56.1242 67.4315 55.8476C67.0174 55.5709 66.6947 55.1777 66.5042 54.7176C66.3136 54.2576 66.2638 53.7513 66.3609 53.263C66.4581 52.7746 66.6979 52.3259 67.05 51.9738C67.4022 51.6217 67.8508 51.382 68.3392 51.2849C68.8276 51.1877 69.3338 51.2376 69.7939 51.4282C70.2539 51.6188 70.6471 51.9415 70.9237 52.3556C71.2004 52.7697 71.348 53.2565 71.3479 53.7544C71.347 54.4218 71.0814 55.0615 70.6094 55.5332C70.1374 56.005 69.4976 56.2704 68.8302 56.2711V56.2719Z" fill="url(#paint4_linear_1_56)"/>
<path d="M79.1698 48.4167C80.159 48.4167 81.1261 48.1233 81.9486 47.5737C82.7711 47.024 83.4122 46.2428 83.7908 45.3289C84.1693 44.4149 84.2683 43.4092 84.0753 42.4389C83.8823 41.4687 83.4059 40.5774 82.7064 39.8779C82.0068 39.1784 81.1156 38.7021 80.1453 38.5091C79.175 38.3161 78.1694 38.4152 77.2554 38.7938C76.3414 39.1723 75.5603 39.8135 75.0106 40.636C74.461 41.4586 74.1677 42.4256 74.1677 43.4149C74.1692 44.741 74.6967 46.0125 75.6344 46.9502C76.5722 47.8879 77.8436 48.4153 79.1698 48.4167ZM79.1698 40.8974C79.6677 40.8974 80.1544 41.0451 80.5684 41.3217C80.9823 41.5984 81.305 41.9916 81.4955 42.4516C81.686 42.9116 81.7358 43.4178 81.6387 43.9061C81.5415 44.3945 81.3017 44.843 80.9496 45.1951C80.5976 45.5471 80.149 45.7869 79.6606 45.884C79.1723 45.9811 78.6661 45.9313 78.2061 45.7407C77.7461 45.5502 77.353 45.2275 77.0763 44.8135C76.7997 44.3995 76.6521 43.9128 76.6521 43.4149C76.6528 42.7474 76.9183 42.1075 77.3904 41.6355C77.8624 41.1635 78.5023 40.8981 79.1698 40.8974Z" fill="url(#paint5_linear_1_56)"/>
<path d="M76.9229 53.7544C76.9229 54.1988 77.0547 54.6332 77.3016 55.0027C77.5485 55.3722 77.8994 55.6602 78.3099 55.8303C78.7205 56.0004 79.1723 56.0448 79.6081 55.9582C80.044 55.8715 80.4444 55.6575 80.7586 55.3432C81.0728 55.029 81.2868 54.6286 81.3735 54.1928C81.4602 53.7569 81.4157 53.3051 81.2457 52.8946C81.0756 52.484 80.7876 52.1331 80.4181 51.8862C80.0486 51.6393 79.6142 51.5075 79.1698 51.5075C78.5741 51.5082 78.0029 51.7451 77.5817 52.1663C77.1605 52.5876 76.9235 53.1587 76.9229 53.7544ZM79.4073 53.7544C79.4073 53.8014 79.3933 53.8473 79.3672 53.8863C79.3411 53.9254 79.3041 53.9558 79.2607 53.9738C79.2173 53.9918 79.1695 53.9965 79.1235 53.9873C79.0774 53.9782 79.0351 53.9555 79.0019 53.9223C78.9687 53.8891 78.9461 53.8468 78.9369 53.8007C78.9277 53.7547 78.9324 53.7069 78.9504 53.6635C78.9684 53.6201 78.9988 53.5831 79.0379 53.557C79.0769 53.5309 79.1228 53.517 79.1698 53.517C79.2327 53.5171 79.2931 53.5421 79.3376 53.5866C79.3821 53.6311 79.4071 53.6915 79.4073 53.7544Z" fill="url(#paint6_linear_1_56)"/>
<path d="M34.2274 50.1016H30.6406V46.5071C30.6391 46.3478 30.6054 46.1905 30.5415 46.0447C30.4775 45.8988 30.3848 45.7674 30.2687 45.6583C30.1526 45.5492 30.0157 45.4648 29.8661 45.4101C29.7166 45.3553 29.5575 45.3315 29.3984 45.3398H24.5624C24.4072 45.3328 24.2522 45.3581 24.1074 45.4142C23.9625 45.4704 23.8309 45.5561 23.721 45.6659C23.6112 45.7757 23.5254 45.9073 23.4692 46.0521C23.4129 46.1969 23.3875 46.3519 23.3945 46.5071V50.1016H19.733C19.3974 50.0976 19.0735 50.2242 18.8296 50.4546C18.5856 50.685 18.4409 51.0013 18.4258 51.3365V56.1723C18.4258 56.8582 19.0469 57.3477 19.733 57.3477H23.3945V61.0015C23.3945 61.6874 23.8767 62.3164 24.5628 62.3164H29.3984C29.7351 62.2999 30.0524 62.1538 30.2839 61.9087C30.5154 61.6637 30.6432 61.3386 30.6406 61.0015V57.3477H34.2272C34.3832 57.3539 34.5389 57.3278 34.6843 57.2709C34.8297 57.2141 34.9617 57.1277 35.0721 57.0173C35.1825 56.9069 35.2688 56.7748 35.3257 56.6294C35.3825 56.484 35.4086 56.3283 35.4023 56.1723V51.3365C35.4084 51.176 35.3823 51.016 35.3256 50.8658C35.2689 50.7156 35.1827 50.5782 35.0721 50.4618C34.9632 50.3475 34.8321 50.2567 34.6869 50.1947C34.5416 50.1328 34.3853 50.1011 34.2274 50.1016ZM32.918 54.8633H29.3984C29.0623 54.8785 28.7451 55.0234 28.5135 55.2675C28.2819 55.5116 28.1539 55.8359 28.1563 56.1723V59.832H25.8789V56.1723C25.8647 55.8285 25.7213 55.5027 25.4773 55.26C25.2333 55.0173 24.9067 54.8757 24.5628 54.8633H20.9102V52.5859H24.5624C24.9004 52.587 25.2258 52.4577 25.471 52.225C25.7162 51.9923 25.8623 51.6741 25.8789 51.3365V47.8242H28.1563V51.3365C28.1559 51.6667 28.2865 51.9836 28.5193 52.2178C28.7521 52.452 29.0682 52.5843 29.3984 52.5859H32.918V54.8633Z" fill="url(#paint7_linear_1_56)"/>
<path d="M26.9801 38.8482C24.0319 38.8482 21.15 39.7224 18.6986 41.3603C16.2473 42.9983 14.3367 45.3263 13.2085 48.05C12.0803 50.7738 11.7851 53.771 12.3603 56.6625C12.9354 59.554 14.3551 62.2101 16.4398 64.2947C18.5245 66.3794 21.1805 67.7991 24.072 68.3743C26.9636 68.9494 29.9607 68.6542 32.6845 67.526C35.4082 66.3978 37.7363 64.4872 39.3742 62.0359C41.0121 59.5846 41.8864 56.7026 41.8864 53.7544C41.8819 49.8024 40.31 46.0135 37.5155 43.219C34.721 40.4245 30.9321 38.8526 26.9801 38.8482ZM26.9801 66.1763C24.5233 66.1763 22.1217 65.4478 20.0789 64.0828C18.0361 62.7179 16.444 60.7779 15.5038 58.5081C14.5636 56.2383 14.3176 53.7406 14.7969 51.331C15.2762 48.9214 16.4593 46.7081 18.1965 44.9708C19.9337 43.2336 22.1471 42.0505 24.5567 41.5712C26.9663 41.0919 29.464 41.3379 31.7338 42.2781C34.0036 43.2183 35.9436 44.8104 37.3085 46.8532C38.6735 48.896 39.402 51.2976 39.402 53.7544C39.3983 57.0478 38.0883 60.2052 35.7596 62.5339C33.4308 64.8626 30.2735 66.1726 26.9801 66.1763Z" fill="url(#paint8_linear_1_56)"/>
<path d="M25.6719 37.6797H26.707C27.0365 37.6797 27.3524 37.5488 27.5854 37.3159C27.8183 37.0829 27.9492 36.7669 27.9492 36.4375C27.9492 36.1081 27.8183 35.7921 27.5854 35.5591C27.3524 35.3262 27.0365 35.1953 26.707 35.1953H25.6719C25.3424 35.1953 25.0265 35.3262 24.7935 35.5591C24.5606 35.7921 24.4297 36.1081 24.4297 36.4375C24.4297 36.7669 24.5606 37.0829 24.7935 37.3159C25.0265 37.5488 25.3424 37.6797 25.6719 37.6797Z" fill="url(#paint9_linear_1_56)"/>
<path d="M45.7539 36.4375C45.7539 36.1081 45.623 35.7921 45.3901 35.5591C45.1571 35.3262 44.8412 35.1953 44.5117 35.1953H30.6406C30.3112 35.1953 29.9952 35.3262 29.7623 35.5591C29.5293 35.7921 29.3984 36.1081 29.3984 36.4375C29.3984 36.7669 29.5293 37.0829 29.7623 37.3159C29.9952 37.5488 30.3112 37.6797 30.6406 37.6797H44.5117C44.8412 37.6797 45.1571 37.5488 45.3901 37.3159C45.623 37.0829 45.7539 36.7669 45.7539 36.4375Z" fill="url(#paint10_linear_1_56)"/>
<defs>
<linearGradient id="paint0_linear_1_56" x1="79.1698" y1="98.7152" x2="79.1698" y2="11.6004" gradientUnits="userSpaceOnUse">
<stop offset="0.322" stop-color="#A163F5"/>
<stop offset="0.466" stop-color="#B074EE"/>
<stop offset="0.752" stop-color="#D8A1DD"/>
<stop offset="0.898" stop-color="#EFBAD3"/>
</linearGradient>
<linearGradient id="paint1_linear_1_56" x1="26077.7" y1="47437.4" x2="26077.7" y2="5577.43" gradientUnits="userSpaceOnUse">
<stop offset="0.322" stop-color="#A163F5"/>
<stop offset="0.466" stop-color="#B074EE"/>
<stop offset="0.752" stop-color="#D8A1DD"/>
<stop offset="0.898" stop-color="#EFBAD3"/>
</linearGradient>
<linearGradient id="paint2_linear_1_56" x1="4902.81" y1="3986.49" x2="4902.81" y2="501.902" gradientUnits="userSpaceOnUse">
<stop offset="0.322" stop-color="#A163F5"/>
<stop offset="0.466" stop-color="#B074EE"/>
<stop offset="0.752" stop-color="#D8A1DD"/>
<stop offset="0.898" stop-color="#EFBAD3"/>
</linearGradient>
<linearGradient id="paint3_linear_1_56" x1="4409.77" y1="4818.87" x2="4409.77" y2="609.305" gradientUnits="userSpaceOnUse">
<stop offset="0.322" stop-color="#A163F5"/>
<stop offset="0.466" stop-color="#B074EE"/>
<stop offset="0.752" stop-color="#D8A1DD"/>
<stop offset="0.898" stop-color="#EFBAD3"/>
</linearGradient>
<linearGradient id="paint4_linear_1_56" x1="3389.84" y1="4818.87" x2="3389.84" y2="609.306" gradientUnits="userSpaceOnUse">
<stop offset="0.322" stop-color="#A163F5"/>
<stop offset="0.466" stop-color="#B074EE"/>
<stop offset="0.752" stop-color="#D8A1DD"/>
<stop offset="0.898" stop-color="#EFBAD3"/>
</linearGradient>
<linearGradient id="paint5_linear_1_56" x1="79.1698" y1="98.7152" x2="79.1698" y2="11.6004" gradientUnits="userSpaceOnUse">
<stop offset="0.322" stop-color="#A163F5"/>
<stop offset="0.466" stop-color="#B074EE"/>
<stop offset="0.752" stop-color="#D8A1DD"/>
<stop offset="0.898" stop-color="#EFBAD3"/>
</linearGradient>
<linearGradient id="paint6_linear_1_56" x1="1795.38" y1="2194.22" x2="1795.38" y2="303.305" gradientUnits="userSpaceOnUse">
<stop offset="0.322" stop-color="#A163F5"/>
<stop offset="0.466" stop-color="#B074EE"/>
<stop offset="0.752" stop-color="#D8A1DD"/>
<stop offset="0.898" stop-color="#EFBAD3"/>
</linearGradient>
<linearGradient id="paint7_linear_1_56" x1="2225.5" y1="8140.77" x2="2225.5" y2="996.661" gradientUnits="userSpaceOnUse">
<stop offset="0.322" stop-color="#A163F5"/>
<stop offset="0.466" stop-color="#B074EE"/>
<stop offset="0.752" stop-color="#D8A1DD"/>
<stop offset="0.898" stop-color="#EFBAD3"/>
</linearGradient>
<linearGradient id="paint8_linear_1_56" x1="3897.21" y1="14253.8" x2="3897.21" y2="1709.3" gradientUnits="userSpaceOnUse">
<stop offset="0.322" stop-color="#A163F5"/>
<stop offset="0.466" stop-color="#B074EE"/>
<stop offset="0.752" stop-color="#D8A1DD"/>
<stop offset="0.898" stop-color="#EFBAD3"/>
</linearGradient>
<linearGradient id="paint9_linear_1_56" x1="469.65" y1="1219.78" x2="469.65" y2="174.4" gradientUnits="userSpaceOnUse">
<stop offset="0.322" stop-color="#A163F5"/>
<stop offset="0.466" stop-color="#B074EE"/>
<stop offset="0.752" stop-color="#D8A1DD"/>
<stop offset="0.898" stop-color="#EFBAD3"/>
</linearGradient>
<linearGradient id="paint10_linear_1_56" x1="2997.92" y1="1219.78" x2="2997.92" y2="174.4" gradientUnits="userSpaceOnUse">
<stop offset="0.322" stop-color="#A163F5"/>
<stop offset="0.466" stop-color="#B074EE"/>
<stop offset="0.752" stop-color="#D8A1DD"/>
<stop offset="0.898" stop-color="#EFBAD3"/>
</linearGradient>
</defs>
</svg>
