<svg width="25" height="24" viewBox="0 0 25 24" fill="none" xmlns="http://www.w3.org/2000/svg">
<path fill-rule="evenodd" clip-rule="evenodd" d="M18.8862 3.92002C18.1733 3.3437 17.2606 3 16.2794 3C14.3906 3 12.8082 4.25595 12.3299 5.95892C12.2334 6.30267 12.1819 6.66463 12.1819 7.03815C12.1819 7.35815 12.2094 7.66585 12.2769 7.95877C11.5695 7.9248 10.8791 7.82861 10.2109 7.6756C8.38272 7.25696 6.72106 6.41296 5.33519 5.25393C4.7865 4.79505 4.28105 4.28679 3.82561 3.736C3.47186 4.34031 3.26436 5.032 3.26436 5.77662C3.26436 5.88113 3.26844 5.98476 3.27646 6.08735C3.29111 6.27482 3.31888 6.45881 3.35883 6.63841C3.44077 7.0068 3.57394 7.3567 3.75013 7.68012C3.94251 8.03326 4.18619 8.35484 4.47051 8.63446C4.48565 8.64935 4.5009 8.66412 4.51627 8.67877C4.692 8.84628 4.88258 8.99804 5.08561 9.13169C4.46028 9.12001 3.84622 8.94973 3.3172 8.67877C3.28892 8.66428 3.26089 8.64951 3.23311 8.63446V8.67877C3.23311 9.38924 3.4195 10.0561 3.74581 10.6357C3.79032 10.7147 3.83743 10.7921 3.88703 10.8678C3.91936 10.9172 3.95275 10.9658 3.98715 11.0136C4.22704 11.347 4.51667 11.6431 4.84496 11.8914C5.03242 12.0332 5.23249 12.1594 5.44311 12.2681C5.5173 12.3064 5.59281 12.3425 5.66953 12.3764C5.93869 12.4951 6.22284 12.5861 6.51811 12.6455C6.18436 12.7354 5.82061 12.7785 5.44311 12.7785C5.18061 12.7785 4.91561 12.7637 4.66686 12.7095C4.83506 13.2157 5.10112 13.6795 5.44311 14.0781C5.59403 14.2541 5.75974 14.4173 5.93835 14.5659C5.98024 14.6008 6.02284 14.6348 6.06612 14.6681C6.09789 14.6924 6.13002 14.7164 6.16252 14.7399C6.82032 15.2152 7.62544 15.5033 8.49811 15.5218C7.8545 16.0176 7.1308 16.4224 6.3496 16.7147C6.18672 16.7756 6.02134 16.8316 5.85366 16.8826C5.08247 17.117 4.26273 17.2437 3.41436 17.2437C3.07811 17.2437 2.75561 17.2289 2.43311 17.1883C2.75023 17.3897 3.07762 17.5759 3.41436 17.7463C4.36375 18.2265 5.38756 18.5798 6.46577 18.7869C7.19537 18.9269 7.94987 19 8.72311 19C16.2681 19 20.3931 12.8462 20.3931 7.512L20.3931 7.50668C20.393 7.33012 20.3868 7.15953 20.3781 6.99015C20.5089 6.89876 20.6363 6.8037 20.7604 6.70514C21.2126 6.34599 21.6204 5.9402 21.9845 5.49468C22.1422 5.30177 22.2917 5.1014 22.4331 4.89415C21.6894 5.21538 20.8969 5.42831 20.0706 5.53169C20.6272 5.20449 21.0975 4.75485 21.4415 4.21769C21.5917 3.98309 21.7179 3.7318 21.8166 3.46672C21.837 3.41183 21.8563 3.35635 21.8744 3.30031C21.8399 3.32052 21.8053 3.34048 21.7706 3.36018C21.4724 3.52922 21.1629 3.67921 20.8434 3.80971C20.8012 3.82699 20.7587 3.84392 20.7161 3.8605C20.449 3.96439 20.1752 4.05485 19.8954 4.13162C19.7086 4.18287 19.5191 4.22802 19.3271 4.26699C19.3096 4.27056 19.292 4.27408 19.2744 4.27754C19.153 4.15029 19.0233 4.03085 18.8862 3.92002ZM17.8271 5.65795C17.4417 5.25387 16.8877 5 16.2794 5C15.0906 5 14.1819 5.94193 14.1819 7.03815C14.1819 7.2464 14.2001 7.39802 14.2258 7.50967C14.3664 8.11991 14.2131 8.76079 13.8115 9.2413C13.4099 9.72182 12.8064 9.98651 12.1809 9.95647C10.3467 9.86839 8.60876 9.42239 7.03566 8.68736C7.11205 9.02215 7.10285 9.37875 6.99602 9.72356C6.89624 10.0456 6.72039 10.328 6.49205 10.5537C6.62524 10.611 6.76605 10.6553 6.913 10.6849C7.823 10.8682 8.48728 11.6535 8.51707 12.5813C8.52762 12.9096 8.45774 13.2252 8.32332 13.5067C8.39471 13.5155 8.46722 13.5207 8.54067 13.5223C9.3888 13.5404 10.1333 14.0915 10.3981 14.8974C10.6359 15.6211 10.4406 16.4087 9.91173 16.9368C15.3958 16.3422 18.3931 11.6645 18.3931 7.512C18.3931 7.37975 18.3885 7.24416 18.3807 7.09231C18.361 6.70593 18.1772 6.17593 18.1772 6.17593C18.1772 6.17593 18.0151 5.85502 17.8271 5.65795Z" fill="black"/>
</svg>
