<svg width="25" height="24" viewBox="0 0 25 24" fill="none" xmlns="http://www.w3.org/2000/svg">
<path fill-rule="evenodd" clip-rule="evenodd" d="M21.0485 6.63015C20.9802 6.37636 20.775 6.17098 20.5208 6.10249L20.5129 6.10039C20.294 6.04047 19.7237 5.96078 18.8207 5.89338C17.9747 5.83024 16.9853 5.78717 16.0305 5.75813C15.0789 5.7292 14.178 5.71468 13.5139 5.70741C13.1823 5.70378 12.9107 5.70197 12.7226 5.70106C12.6285 5.70061 12.5554 5.70039 12.5061 5.70027L12.3595 5.70027C12.3102 5.70038 12.237 5.70059 12.1429 5.70103C11.9546 5.7019 11.6829 5.70364 11.3511 5.70713C10.6867 5.71413 9.78524 5.72811 8.83306 5.75596C7.87772 5.7839 6.88709 5.82537 6.03956 5.88622C5.15157 5.94997 4.57903 6.02548 4.34554 6.08454C4.11256 6.15236 3.8889 6.3712 3.81852 6.62608C3.65174 7.26483 3.54387 8.39389 3.48712 9.50383C3.46015 10.0315 3.44658 10.5099 3.4398 10.8564C3.43642 11.0292 3.43474 11.1681 3.43391 11.2627L3.4332 11.3698L3.43312 11.3957L3.43311 11.4014V11.4026L3.43312 11.4082L3.4332 11.4344L3.43391 11.542C3.43474 11.6371 3.43642 11.7767 3.4398 11.9502C3.44659 12.2982 3.46016 12.7782 3.48713 13.307C3.54407 14.4229 3.6523 15.55 3.81796 16.1757C3.88708 16.4289 4.092 16.6332 4.34528 16.7014L4.34809 16.7021C4.57469 16.7635 5.1505 16.8432 6.05281 16.9105C6.89976 16.9737 7.88869 17.0167 8.84234 17.0458C9.79276 17.0747 10.692 17.0892 11.3547 17.0965C11.6856 17.1001 11.9565 17.1019 12.1442 17.1028C12.238 17.1033 12.3109 17.1035 12.36 17.1036L12.5065 17.1036C12.5558 17.1035 12.629 17.1033 12.7231 17.1029C12.9113 17.102 13.1831 17.1002 13.5149 17.0968C14.1793 17.0898 15.0807 17.0758 16.0329 17.0479C16.9882 17.02 17.9789 16.9785 18.8264 16.9177C19.7215 16.8534 20.2961 16.7772 20.526 16.7179C20.7761 16.6488 20.9784 16.4465 21.0476 16.1958C21.2144 15.5569 21.3223 14.4279 21.379 13.3181C21.406 12.7904 21.4195 12.3121 21.4263 11.9656C21.4297 11.7928 21.4314 11.6539 21.4322 11.5593L21.4329 11.4523L21.433 11.4263L21.433 11.4207V11.41L21.4331 11.4039L21.4331 11.378C21.4331 11.3544 21.4331 11.3182 21.4329 11.2709C21.4325 11.1762 21.4314 11.0369 21.4287 10.8637C21.4233 10.5163 21.4114 10.0369 21.3855 9.50846C21.3308 8.3894 21.2219 7.26342 21.0508 6.63858L21.0485 6.63015ZM23.433 11.4201C23.433 11.4201 23.433 14.99 22.98 16.7116C22.7262 17.6539 21.9833 18.3969 21.0409 18.6505C19.3193 19.1037 12.4331 19.1037 12.4331 19.1037C12.4331 19.1037 5.5648 19.1037 3.82525 18.6326C2.88279 18.3788 2.1399 17.6357 1.88612 16.6935C1.43311 14.99 1.43311 11.4019 1.43311 11.4019C1.43311 11.4019 1.43311 7.83186 1.88612 6.11043C2.13974 5.16815 2.90092 4.40696 3.82508 4.15335C5.54667 3.70016 12.4329 3.70016 12.4329 3.70016C12.4329 3.70016 19.3193 3.70016 21.0409 4.17131C21.9832 4.42509 22.7262 5.16798 22.9798 6.11043C23.4511 7.83186 23.433 11.4201 23.433 11.4201Z" fill="black"/>
<path d="M11.7404 10.6987L12.9613 11.4019L11.7404 12.1052V10.6987Z" stroke="black" stroke-width="3" stroke-linecap="round" stroke-linejoin="round"/>
</svg>
